<svg t="1594202059452" class="icon" viewBox="0 0 1024 1024" version="1.1" xmlns="http://www.w3.org/2000/svg" p-id="10598" width="16" height="16"><path d="M277.432637 293.177226L77.243245 482.660788c-15.280008 14.521738-16.044418 38.968523-1.521656 54.249555l187.953719 200.187345c6.877641 8.402367 17.575284 12.227486 27.506471 12.227486 9.17394 0 19.10615-3.060709 26.743084-9.93835 15.286148-14.516622 16.043395-38.962384 1.529843-54.242392L157.470451 512.462534l172.680874-163.514097c15.281031-14.514575 16.046464-38.969547 1.530866-54.249555-14.514575-15.278985-38.969547-16.045441-54.249554-1.521656zM946.753685 481.896378l-200.187345-189.485609c-15.278985-14.522762-39.726793-13.757329-54.241368 1.523703-14.521738 15.287171-13.757329 39.73498 1.521656 54.249555l172.681898 163.514098-162.750711 172.679851c-14.514575 15.281031-13.750165 39.727817 1.530866 54.249555 6.877641 6.872524 16.808828 10.698666 25.977651 10.698666 9.931187 0 20.627806-3.826142 28.271904-12.991896l188.726315-200.187345c14.514575-15.283078 13.750165-39.72884-1.530866-54.250578zM573.893652 199.192691c-20.62883-4.583388-41.265846 8.40953-45.849234 29.037337L403.499867 779.119757c-4.583388 20.629853 8.40953 41.258683 29.037337 45.842071 3.053546 0.76441 5.348821 0.76441 8.401344 0.76441 17.575284 0 33.621748-12.220323 37.437657-29.795607l124.545574-550.890752c4.584412-20.635993-8.401344-41.263799-29.028127-45.847188z" fill="#C5C5C5" p-id="10599"></path></svg>
