<svg t="1594202374881" class="icon" viewBox="0 0 1061 1024" version="1.1" xmlns="http://www.w3.org/2000/svg" p-id="11330" width="16" height="16"><path d="M966.810326 76.14674c-53.079783-49.28837-121.325217-79.619674-189.570652-75.828261-109.950978 3.791413-193.362065 49.28837-246.441848 136.490869C451.178152 7.901305 322.270109 0.318479 284.355978 0.318479 128.908043 4.109892 0 140.600761 0 299.840109v18.957065C0 663.815761 363.975652 910.257609 477.718043 974.71163c15.165652 11.374239 34.122717 15.165652 53.079783 15.165653 18.957065 0 37.91413-3.791413 53.079782-15.165653C697.62 910.257609 1061.595652 667.607174 1061.595652 318.797174v-18.957065c0-83.411087-34.122717-166.822174-94.785326-223.693369z m22.748478 242.650434c0 310.895869-337.435761 534.589239-439.803913 595.251848-11.374239 7.582826-26.539891 7.582826-37.91413 0-102.368152-60.662609-439.803913-284.355978-439.803913-595.251848v-18.957065c0-121.325217 98.576739-227.484783 212.31913-227.484783h3.791413c49.28837 0 159.239348 15.165652 212.319131 159.239348 3.791413 15.165652 18.957065 22.748478 34.122717 22.748479s26.539891-7.582826 34.122717-22.748479c37.91413-109.950978 102.368152-155.447935 212.319131-159.239348 49.28837-3.791413 98.576739 18.957065 136.490869 53.079783 45.496957 45.496957 75.828261 109.950978 75.828261 174.405v18.957065z" fill="#C5C5C5" p-id="11331"></path></svg>
