<?xml version="1.0" standalone="no"?><!DOCTYPE svg PUBLIC "-//W3C//DTD SVG 1.1//EN" "http://www.w3.org/Graphics/SVG/1.1/DTD/svg11.dtd"><svg t="1594101519630" class="icon" viewBox="0 0 1024 1024" version="1.1" xmlns="http://www.w3.org/2000/svg" p-id="5921" xmlns:xlink="http://www.w3.org/1999/xlink" width="16" height="16"><defs><style type="text/css"></style></defs><path d="M512 977.92C256 977.92 46.08 768 46.08 512S256 46.08 512 46.08 977.92 256 977.92 512c0 122.88-46.08 240.64-138.24 327.68-87.04 87.04-204.8 138.24-327.68 138.24z m0-849.92c-215.04 0-389.12 174.08-389.12 384 0 215.04 174.08 389.12 389.12 389.12 215.04 0 384-174.08 384-389.12 0-215.04-168.96-384-384-384z m204.8 527.36h-15.36l-215.04-71.68c-15.36-10.24-25.6-25.6-25.6-40.96V245.76c5.12-25.6 25.6-40.96 46.08-40.96s40.96 20.48 40.96 40.96V512l189.44 61.44c10.24 5.12 20.48 15.36 20.48 25.6 5.12 10.24 5.12 20.48 0 30.72-5.12 10.24-10.24 15.36-20.48 20.48-10.24 5.12-15.36 5.12-20.48 5.12z" fill="#C5C5C5" p-id="5922"></path></svg>
