<?xml version="1.0" standalone="no"?>
<!DOCTYPE svg PUBLIC "-//W3C//DTD SVG 1.1//EN" "http://www.w3.org/Graphics/SVG/1.1/DTD/svg11.dtd">
<svg class="icon" viewBox="0 0 1024 1024" version="1.1" xmlns="http://www.w3.org/2000/svg" p-id="3845" xmlns:xlink="http://www.w3.org/1999/xlink" width="24" height="24">
  <defs><style type="text/css"></style></defs>
  <path d="M830.470985 68.330378h127.44537a28.533564 28.533564 0 0 1 22.799547 8.737551c6.075328 6.280115 9.35191 15.017665 9.078861 24.028265v131.541097c0 18.840344-14.335044 34.131058-31.878408 34.131058-17.611626 0-31.878408-15.290714-31.878408-34.131058v-59.319779L632.920422 495.446437c-9.35191 7.508833-14.812879 7.508833-17.270316 8.601027a50.240917 50.240917 0 0 1-27.304846-8.601027L384.44632 350.867276 97.608909 607.191521c-14.19852 6.826212-30.444904 6.826212-44.643424 0a40.684221 40.684221 0 0 1 0-52.493568l305.882541-276.051996a30.376642 30.376642 0 0 1 44.643424 0L607.458652 423.225118l267.587495-289.021798h-44.575162a30.308379 30.308379 0 0 1-27.850943-15.973335 34.881941 34.881941 0 0 1 0-33.789748 30.308379 30.308379 0 0 1 27.850943-16.041597zM97.745433 690.812612h59.388041a62.118525 62.118525 0 0 1 63.620292 63.756817v207.107259c0 37.680688-28.465302 62.323312-63.55203 62.323312H97.745433C62.590444 1023.931738 34.125141 999.289114 34.125141 961.608426v-198.847543c0-37.74895 28.465302-72.016532 63.620292-72.016533z m498.313446-124.100526h59.456303a62.118525 62.118525 0 0 1 63.620292 63.688554v331.276048c0 37.680688-28.465302 62.323312-63.620292 62.323312h-59.388041c-35.15499 0-63.620292-24.574362-63.620292-62.323312V638.592094c0-37.680688 28.465302-71.94827 63.55203-71.94827z m-249.156723-62.528098h59.456303a62.118525 62.118525 0 0 1 63.620292 63.620292v393.872408c0 37.74895-28.465302 62.323312-63.620292 62.323312h-59.388041c-35.15499 0-63.688554-24.574362-63.688554-62.25505v-385.680954c0-37.680688 28.533564-71.880008 63.620292-71.880008z m499.337378-62.528098h59.388041a62.118525 62.118525 0 0 1 63.620291 63.688554v456.332244c0 37.680688-28.465302 62.323312-63.552029 62.323312h-59.456303c-35.15499 0-63.620292-24.574362-63.620292-62.323312V513.535898c0-37.74895 28.465302-71.94827 63.620292-71.948271z" fill="#424242"></path>
</svg>
