<?xml version="1.0" standalone="no"?><!DOCTYPE svg PUBLIC "-//W3C//DTD SVG 1.1//EN" "http://www.w3.org/Graphics/SVG/1.1/DTD/svg11.dtd"><svg t="1594101654418" class="icon" viewBox="0 0 1104 1024" version="1.1" xmlns="http://www.w3.org/2000/svg" p-id="8730" xmlns:xlink="http://www.w3.org/1999/xlink" width="17.25" height="16"><defs><style type="text/css"></style></defs><path d="M221.2352 855.8592c-49.8688 0-92.2112 42.496-92.2112 94.0544v28.8256c0 22.6304 18.3296 40.96 40.96 40.96h778.24c22.6304 0 40.96-18.3296 40.96-40.96v-28.8768c1.536-51.5584-39.3216-94.0544-90.7264-94.0544l-677.2224 0.0512zM19.456 647.7824c0 64 51.4048 116.736 116.1216 116.736h850.8928c62.8224 0 116.1216-52.736 116.1216-116.736V57.8048c0-22.6304-18.3296-40.96-40.96-40.96H60.416c-22.6304 0-40.96 18.3296-40.96 40.96v589.9776z m751.9232-352.2048c-15.2576-15.0528-15.2576-37.6832 0-52.736 15.2064-15.0528 38.0928-15.0528 51.4048 0l133.2224 137.472c15.2064 15.0528 15.2064 37.6832 0 52.736l-133.2736 137.472c-15.2064 15.0528-38.0928 15.0528-51.4048 0-15.2064-15.0528-15.2064-37.6832 0-52.736l108.544-111.104-108.4928-111.104z m-285.5936 274.944l93.2864-354.048c5.7344-20.6848 24.7296-32 45.6704-26.368 19.0464 5.632 30.464 26.368 26.6752 47.104l-93.2864 354.048c-5.7344 20.6848-24.7296 32-45.6704 26.368-20.9408-7.5264-32.3584-28.2624-26.6752-47.104zM329.728 240.9472c15.2576-15.0528 38.0928-15.0528 51.4048 0 15.2576 15.0528 15.2576 37.6832 0 52.736l-108.4928 111.104 108.4928 111.104c15.2576 15.0528 15.2576 37.6832 0 52.736-15.2576 15.0528-38.0928 15.0528-51.4048 0L196.5056 431.1552c-15.2576-15.0528-15.2576-37.6832 0-52.736 0 0.0512 133.2224-137.472 133.2224-137.472z" fill="#424242" p-id="8731"></path></svg>
