<?xml version="1.0" standalone="no"?><!DOCTYPE svg PUBLIC "-//W3C//DTD SVG 1.1//EN" "http://www.w3.org/Graphics/SVG/1.1/DTD/svg11.dtd"><svg t="1594101802273" class="icon" viewBox="0 0 1024 1024" version="1.1" xmlns="http://www.w3.org/2000/svg" p-id="9488" xmlns:xlink="http://www.w3.org/1999/xlink" width="16" height="16"><defs><style type="text/css"></style></defs><path fill="#424242" d="M866.44 126.64H157.568c-57.2 0-103.728 45.4-103.728 101.208V754.56c0 55.808 46.528 101.2 103.728 101.2h443.336c0.256-0.016 27.424-0.736 58.032 4.744 26.04 4.656 60.112 14.792 74.512 36.608a19.184 19.184 0 0 0 16.04 8.52c3.528 0 7.104-0.952 10.296-2.96a18.32 18.32 0 0 0 5.704-25.696c-17.584-26.64-51.376-44.528-100.432-53.168-32.92-5.808-61.44-5.312-65.016-5.216h-442.48c-36.184 0-65.624-28.728-65.624-64.032V227.848c0-35.312 29.44-64.032 65.624-64.032h708.872c36.176 0 65.624 28.72 65.624 64.032V754.56c0 33.032-25.368 60.424-59 63.704a67.88 67.88 0 0 1-6.624 0.328h-53.2c-10.512 0-19.048 8.32-19.048 18.592 0 10.264 8.52 18.576 19.048 18.576h53.2c3.456 0 6.96-0.168 10.408-0.504a104.432 104.432 0 0 0 66.312-32.592 99.6 99.6 0 0 0 27.008-68.112V227.848c0.008-55.808-46.536-101.208-103.72-101.208z" p-id="9489"></path><path fill="#424242" d="M537.832 292.312h-52.136l-143.728 381.36h53.832l36.296-104.392h157.136l38.488 104.392h53.84l-143.728-381.36zM447.448 526.2l56.52-158.552c2.272-6.232 4.304-15.096 6.088-26.592h1.216c2.104 12.648 4.056 21.504 5.848 26.592l57 158.552H447.448z" p-id="9490"></path></svg>
